# xmcd
#
# Track frame offsets:
#	150
#	19640
#	35532
#	49205
#	63245
#	85177
#	98532
#	118515
#	134230
#	151320
#	168502
#	187430
#	203042
#	226140
#	243565
#	264027
#	280930
#	299497
#
# Disc length: 4233
#
# Revision: 2
# Processed by: cddbd v1.5.1PL0 Copyright (c) Steve Scherf et al.
# Submitted via: CDex 1.51
# Normalized: r1:TDELIM( - )
#
DISCID=01108712
DTITLE=Various Artist - The Love Album - Soul For Lovers
DYEAR=1997
DGENRE=Blues
TTITLE0=The Supremes - Stop In The Name Of Love
TTITLE1=Edwin Starr - Darling Darling Baby
TTITLE2=Fifth Dimension - Love Hangover
TTITLE3=Martha Reeves and G C Cameron - You're All I Need To Get By
TTITLE4=Louvaine Demps - Blind Love
TTITLE5=The Marvelettes - When You're Young And In Love
TTITLE6=The Supremes - Stoned Love
TTITLE7=Johnny Bristol - Man Up In The Sky
TTITLE8=Bettye Levette - Let Me Down Easy
TTITLE9=The Supremes - Love Child
TTITLE10=Carolyn Crawford - Cry To Me
TTITLE11=The Originals and the Supremes - I'm Gonna Make You Love Me
TTITLE12=Hattie Littles - After The Love Has Gone
TTITLE13=The Supremes - Crazy 'Bout The Guy
TTITLE14=Sherri Taylor and Sammy Ward - Reunited
TTITLE15=Jean Terrell - Too Many Memories
TTITLE16=Edwin Starr - Teardrops
TTITLE17=Scherrie Payne - Ain't No Mountain High Enough
EXTD=YEAR: 1997
EXTT0=
EXTT1=
EXTT2=
EXTT3=
EXTT4=
EXTT5=
EXTT6=
EXTT7=
EXTT8=
EXTT9=
EXTT10=
EXTT11=
EXTT12=
EXTT13=
EXTT14=
EXTT15=
EXTT16=
EXTT17=
PLAYORDER=
